<svg width="21" height="18" viewBox="0 0 21 18" fill="none" xmlns="http://www.w3.org/2000/svg">
<path d="M17.2708 3.78124C16.5 4.54166 16.302 5.63541 16.6666 6.57291L13.625 9.61458V7.45833C13.625 6.88541 13.1562 6.41666 12.5833 6.41666H11.5104C11.5416 6.23958 11.5416 6.07291 11.5416 5.89583C11.5416 2.72916 8.97913 0.166659 5.81247 0.166659C4.63246 0.165552 3.48092 0.529035 2.51538 1.20739C1.54984 1.88574 0.817455 2.84582 0.418409 3.95631C0.0193623 5.0668 -0.0268554 6.27346 0.286078 7.41122C0.599011 8.54898 1.25581 9.56227 2.16663 10.3125V16.8333C2.16663 17.4062 2.63538 17.875 3.2083 17.875H12.5833C13.1562 17.875 13.625 17.4062 13.625 16.8333V12.5521L18.1354 8.04166C19.0729 8.40624 20.1666 8.21874 20.9166 7.45833L17.2708 3.78124ZM2.21872 6.41666C2.19788 6.23958 2.16663 6.07291 2.16663 5.89583C2.16663 3.88541 3.80205 2.24999 5.81247 2.24999C7.82288 2.24999 9.4583 3.88541 9.4583 5.89583C9.4583 6.07291 9.42705 6.23958 9.40622 6.41666M11.5416 15.7917H4.24997V8.49999H11.5416V15.7917Z" fill="#054D3B"/>
</svg>
