<svg width="34" height="20" viewBox="0 0 34 20" fill="none" xmlns="http://www.w3.org/2000/svg">
<path d="M0.5 19.0375C0.7 16.3875 1.5125 13.9313 2.9375 11.6688C4.3625 9.40625 6.25 7.6125 8.6 6.2875L5.7875 1.45C5.7125 1.225 5.70625 1 5.76875 0.775C5.83125 0.55 5.9625 0.375 6.1625 0.25C6.3875 0.125 6.63125 0.1 6.89375 0.175C7.15625 0.25 7.35 0.4 7.475 0.625L10.25 5.3875C12.4 4.4625 14.65 4 17 4C19.35 4 21.6 4.4625 23.75 5.3875L26.5625 0.625C26.6875 0.4 26.8813 0.25 27.1438 0.175C27.4063 0.1 27.65 0.125 27.875 0.25C28.075 0.375 28.2188 0.55625 28.3063 0.79375C28.3938 1.03125 28.375 1.25 28.25 1.45L25.4 6.2875C27.75 7.6125 29.6375 9.40625 31.0625 11.6688C32.4875 13.9313 33.3 16.3875 33.5 19.0375H0.5ZM9.5 14.9125C10 14.9125 10.4375 14.725 10.8125 14.35C11.1875 13.975 11.375 13.5375 11.375 13.0375C11.375 12.5375 11.1875 12.1 10.8125 11.725C10.4375 11.35 10 11.1625 9.5 11.1625C9 11.1625 8.5625 11.35 8.1875 11.725C7.8125 12.1 7.625 12.5375 7.625 13.0375C7.625 13.5375 7.8125 13.975 8.1875 14.35C8.5625 14.725 9 14.9125 9.5 14.9125ZM24.5 14.9125C25 14.9125 25.4375 14.725 25.8125 14.35C26.1875 13.975 26.375 13.5375 26.375 13.0375C26.375 12.5375 26.1875 12.1 25.8125 11.725C25.4375 11.35 25 11.1625 24.5 11.1625C24 11.1625 23.5625 11.35 23.1875 11.725C22.8125 12.1 22.625 12.5375 22.625 13.0375C22.625 13.5375 22.8125 13.975 23.1875 14.35C23.5625 14.725 24 14.9125 24.5 14.9125Z" fill="black"/>
</svg>
