<svg width="61" height="61" viewBox="0 0 61 61" fill="none" xmlns="http://www.w3.org/2000/svg">
<path d="M35.0115 25.1024V22.1014C36.387 21.5178 37.7937 21.0802 39.2317 20.7884C40.6696 20.4967 42.1806 20.3508 43.7644 20.3508C44.8481 20.3508 45.911 20.4342 46.953 20.6009C47.995 20.7676 49.0161 20.976 50.0165 21.2261V23.977C49.0161 23.6019 48.0054 23.3205 46.9842 23.133C45.9631 22.9454 44.8898 22.8516 43.7644 22.8516C42.1806 22.8516 40.6592 23.0496 39.2004 23.4456C37.7416 23.8415 36.3453 24.3938 35.0115 25.1024ZM35.0115 38.8569V35.7934C36.387 35.2307 37.7937 34.8087 39.2317 34.5273C40.6696 34.246 42.1806 34.1053 43.7644 34.1053C44.8481 34.1053 45.911 34.1887 46.953 34.3554C47.995 34.5221 49.0161 34.7305 50.0165 34.9806V37.7315C49.0161 37.3564 48.0054 37.075 46.9842 36.8875C45.9631 36.6999 44.8898 36.6061 43.7644 36.6061C42.1806 36.6061 40.6592 36.7937 39.2004 37.1688C37.7416 37.544 36.3453 38.1066 35.0115 38.8569ZM35.0115 31.9796V28.9786C36.387 28.3951 37.7937 27.9575 39.2317 27.6657C40.6696 27.3739 42.1806 27.2281 43.7644 27.2281C44.8481 27.2281 45.911 27.3114 46.953 27.4781C47.995 27.6449 49.0161 27.8533 50.0165 28.1033V30.8543C49.0161 30.4791 48.0054 30.1978 46.9842 30.0102C45.9631 29.8227 44.8898 29.7289 43.7644 29.7289C42.1806 29.7289 40.6592 29.9269 39.2004 30.3228C37.7416 30.7188 36.3453 31.2711 35.0115 31.9796ZM32.0105 45.359C34.0946 44.317 36.1369 43.5355 38.1376 43.0145C40.1382 42.4935 42.2639 42.233 44.5147 42.233C46.0985 42.233 47.7345 42.358 49.4225 42.6081C51.1106 42.8582 52.559 43.1916 53.7677 43.6084V16.7871C52.3506 16.0786 50.8538 15.5576 49.2773 15.2241C47.7009 14.8907 46.1133 14.724 44.5147 14.724C42.2639 14.724 40.0861 15.0678 37.9813 15.7555C35.8764 16.4433 33.8862 17.4123 32.0105 18.6627V45.359ZM30.1349 50.9859C28.0092 49.402 25.696 48.1829 23.1952 47.3284C20.6943 46.474 18.131 46.0467 15.5051 46.0467C13.9823 46.0467 12.4866 46.2343 11.0182 46.6094C9.54967 46.9846 8.08602 47.443 6.62721 47.9849C5.66439 48.4434 4.73596 48.3808 3.84192 47.7973C2.94788 47.2138 2.50085 46.3802 2.50085 45.2965V16.3495C2.50085 15.7243 2.64674 15.1512 2.9385 14.6302C3.23026 14.1092 3.6679 13.7028 4.25143 13.411C6.002 12.5774 7.82552 11.9626 9.72198 11.5667C11.6184 11.1707 13.5462 10.9727 15.5051 10.9727C18.131 10.9727 20.6839 11.327 23.1639 12.0356C25.6439 12.7441 27.9676 13.8278 30.1349 15.2866C32.2606 13.8278 34.5426 12.7441 36.9809 12.0356C39.4192 11.327 41.9305 10.9727 44.5147 10.9727C46.4811 10.9727 48.4002 11.1707 50.2721 11.5667C52.144 11.9626 53.9553 12.5774 55.7058 13.411C56.2894 13.7028 56.7374 14.1092 57.05 14.6302C57.3626 15.1512 57.5189 15.7243 57.5189 16.3495V45.2965C57.5189 46.4591 57.05 47.3437 56.1122 47.9503C55.1744 48.5569 54.247 48.5684 53.3301 47.9849C51.9129 47.4014 50.4701 46.9325 49.0016 46.5782C47.5332 46.2239 46.0375 46.0467 44.5147 46.0467C41.8888 46.0467 39.3671 46.4844 36.9497 47.3597C34.5322 48.235 32.2606 49.4437 30.1349 50.9859Z" fill="black"/>
</svg>
