<svg width="60" height="60" viewBox="0 0 60 60" fill="none" xmlns="http://www.w3.org/2000/svg">
<g clip-path="url(#clip0_76_13)">
<path d="M0 45V41.6875C0 40.0805 0.864583 38.7725 2.59375 37.7635C4.32292 36.7545 6.59117 36.25 9.3985 36.25C9.90538 36.25 10.3928 36.2604 10.8607 36.2812C11.3286 36.3021 11.7917 36.3469 12.25 36.4158C11.9167 37.1386 11.6667 37.8712 11.5 38.6136C11.3333 39.3559 11.25 40.1306 11.25 40.9375V45H0ZM15 45V40.9375C15 39.6042 15.3646 38.3854 16.0938 37.2812C16.8229 36.1771 17.8542 35.2083 19.1875 34.375C20.5208 33.5417 22.1146 32.9167 23.9688 32.5C25.8229 32.0833 27.8333 31.875 30 31.875C32.2083 31.875 34.2396 32.0833 36.0938 32.5C37.9479 32.9167 39.5417 33.5417 40.875 34.375C42.2083 35.2083 43.2292 36.1771 43.9375 37.2812C44.6458 38.3854 45 39.6042 45 40.9375V45H15ZM48.75 45V40.9375C48.75 40.11 48.6771 39.3301 48.5312 38.5981C48.3854 37.866 48.1458 37.1401 47.8125 36.4204C48.2708 36.3485 48.7327 36.3021 49.1982 36.2812C49.6637 36.2604 50.1393 36.25 50.625 36.25C53.4375 36.25 55.7031 36.7452 57.4219 37.7355C59.1406 38.7258 60 40.0432 60 41.6875V45H48.75ZM9.34794 34.375C8.15765 34.375 7.13542 33.9466 6.28125 33.0899C5.42708 32.2331 5 31.2031 5 30C5 28.7917 5.42837 27.7604 6.28512 26.9062C7.14192 26.0521 8.17188 25.625 9.375 25.625C10.5833 25.625 11.6146 26.0521 12.4688 26.9062C13.3229 27.7604 13.75 28.8007 13.75 30.0271C13.75 31.2174 13.3229 32.2396 12.4688 33.0938C11.6146 33.9479 10.5743 34.375 9.34794 34.375ZM50.5979 34.375C49.4076 34.375 48.3854 33.9466 47.5312 33.0899C46.6771 32.2331 46.25 31.2031 46.25 30C46.25 28.7917 46.6784 27.7604 47.5351 26.9062C48.3919 26.0521 49.4219 25.625 50.625 25.625C51.8333 25.625 52.8646 26.0521 53.7188 26.9062C54.5729 27.7604 55 28.8007 55 30.0271C55 31.2174 54.5729 32.2396 53.7188 33.0938C52.8646 33.9479 51.8243 34.375 50.5979 34.375ZM30 30C27.9167 30 26.1458 29.2708 24.6875 27.8125C23.2292 26.3542 22.5 24.5833 22.5 22.5C22.5 20.375 23.2292 18.5938 24.6875 17.1562C26.1458 15.7188 27.9167 15 30 15C32.125 15 33.9062 15.7188 35.3438 17.1562C36.7812 18.5938 37.5 20.375 37.5 22.5C37.5 24.5833 36.7812 26.3542 35.3438 27.8125C33.9062 29.2708 32.125 30 30 30Z" fill="black"/>
</g>
<defs>
<clipPath id="clip0_76_13">
<rect width="60" height="60" fill="white"/>
</clipPath>
</defs>
</svg>
