<svg width="60" height="60" viewBox="0 0 60 60" fill="none" xmlns="http://www.w3.org/2000/svg">
<path d="M7.75 24.5625C7.75 21.1875 8.45833 17.9896 9.875 14.9688C11.2917 11.9479 13.3125 9.375 15.9375 7.25L18.5 10.0625C16.2917 11.8542 14.5729 14.0104 13.3438 16.5312C12.1146 19.0521 11.5 21.7292 11.5 24.5625H7.75ZM48.5625 24.5625C48.5625 21.7292 47.9792 19.0521 46.8125 16.5312C45.6458 14.0104 43.9583 11.8542 41.75 10.0625L44.3125 7.25C46.8958 9.41667 48.875 12 50.25 15C51.625 18 52.3125 21.1875 52.3125 24.5625H48.5625ZM10 47.5V43.75H15.25V24.625C15.25 21.125 16.2812 18.0104 18.3438 15.2812C20.4062 12.5521 23.125 10.8333 26.5 10.125V8.3125C26.5 7.35417 26.8438 6.5625 27.5312 5.9375C28.2188 5.3125 29.0417 5 30 5C30.9583 5 31.7812 5.3125 32.4688 5.9375C33.1562 6.5625 33.5 7.35417 33.5 8.3125V10.125C36.875 10.8333 39.6042 12.5521 41.6875 15.2812C43.7708 18.0104 44.8125 21.125 44.8125 24.625V43.75H50V47.5H10ZM30 55C28.6667 55 27.5 54.5104 26.5 53.5312C25.5 52.5521 25 51.375 25 50H35C35 51.375 34.5104 52.5521 33.5312 53.5312C32.5521 54.5104 31.375 55 30 55Z" fill="black"/>
</svg>
