<svg width="32" height="31" viewBox="0 0 32 31" fill="none" xmlns="http://www.w3.org/2000/svg">
<path d="M16 17.6663C15.6736 17.6663 15.3954 17.5581 15.1654 17.3417C14.9355 17.1253 14.8206 16.8635 14.8206 16.5562C14.8206 16.2489 14.9355 15.987 15.1654 15.7706C15.3954 15.5542 15.6736 15.446 16 15.446C16.3265 15.446 16.6047 15.5542 16.8346 15.7706C17.0646 15.987 17.1795 16.2489 17.1795 16.5562C17.1795 16.8635 17.0646 17.1253 16.8346 17.3417C16.6047 17.5581 16.3265 17.6663 16 17.6663ZM10.6667 17.6663C10.3402 17.6663 10.062 17.5581 9.83211 17.3417C9.6022 17.1253 9.48725 16.8635 9.48725 16.5562C9.48725 16.2489 9.6022 15.987 9.83211 15.7706C10.062 15.5542 10.3402 15.446 10.6667 15.446C10.9932 15.446 11.2714 15.5542 11.5013 15.7706C11.7312 15.987 11.8462 16.2489 11.8462 16.5562C11.8462 16.8635 11.7312 17.1253 11.5013 17.3417C11.2714 17.5581 10.9932 17.6663 10.6667 17.6663ZM21.3334 17.6663C21.0069 17.6663 20.7287 17.5581 20.4988 17.3417C20.2689 17.1253 20.1539 16.8635 20.1539 16.5562C20.1539 16.2489 20.2689 15.987 20.4988 15.7706C20.7287 15.5542 21.0069 15.446 21.3334 15.446C21.6599 15.446 21.9381 15.5542 22.168 15.7706C22.3979 15.987 22.5128 16.2489 22.5128 16.5562C22.5128 16.8635 22.3979 17.1253 22.168 17.3417C21.9381 17.5581 21.6599 17.6663 21.3334 17.6663ZM16 22.5897C15.6736 22.5897 15.3954 22.4815 15.1654 22.2651C14.9355 22.0487 14.8206 21.7869 14.8206 21.4796C14.8206 21.1723 14.9355 20.9104 15.1654 20.694C15.3954 20.4776 15.6736 20.3694 16 20.3694C16.3265 20.3694 16.6047 20.4776 16.8346 20.694C17.0646 20.9104 17.1795 21.1723 17.1795 21.4796C17.1795 21.7869 17.0646 22.0487 16.8346 22.2651C16.6047 22.4815 16.3265 22.5897 16 22.5897ZM10.6667 22.5897C10.3402 22.5897 10.062 22.4815 9.83211 22.2651C9.6022 22.0487 9.48725 21.7869 9.48725 21.4796C9.48725 21.1723 9.6022 20.9104 9.83211 20.694C10.062 20.4776 10.3402 20.3694 10.6667 20.3694C10.9932 20.3694 11.2714 20.4776 11.5013 20.694C11.7312 20.9104 11.8462 21.1723 11.8462 21.4796C11.8462 21.7869 11.7312 22.0487 11.5013 22.2651C11.2714 22.4815 10.9932 22.5897 10.6667 22.5897ZM21.3334 22.5897C21.0069 22.5897 20.7287 22.4815 20.4988 22.2651C20.2689 22.0487 20.1539 21.7869 20.1539 21.4796C20.1539 21.1723 20.2689 20.9104 20.4988 20.694C20.7287 20.4776 21.0069 20.3694 21.3334 20.3694C21.6599 20.3694 21.9381 20.4776 22.168 20.694C22.3979 20.9104 22.5128 21.1723 22.5128 21.4796C22.5128 21.7869 22.3979 22.0487 22.168 22.2651C21.9381 22.4815 21.6599 22.5897 21.3334 22.5897ZM6.58985 26.9822C6.06698 26.9822 5.61575 26.8035 5.23615 26.4462C4.85655 26.0889 4.66675 25.6642 4.66675 25.1721V6.999C4.66675 6.50686 4.85655 6.08214 5.23615 5.72485C5.61575 5.36755 6.06698 5.1889 6.58985 5.1889H9.05138V2.99268H10.7308V5.1889H21.3205V2.99268H22.9615V5.1889H25.4103C25.9331 5.1889 26.3843 5.36755 26.764 5.72485C27.1435 6.08214 27.3334 6.50686 27.3334 6.999V25.1721C27.3334 25.6642 27.1435 26.0889 26.764 26.4462C26.3843 26.8035 25.9331 26.9822 25.4103 26.9822H6.58985ZM6.58985 25.5583H25.4103C25.5128 25.5583 25.6069 25.518 25.6923 25.4376C25.7778 25.3571 25.8205 25.2686 25.8205 25.1721V12.7067H6.17955V25.1721C6.17955 25.2686 6.22228 25.3571 6.30775 25.4376C6.39324 25.518 6.48727 25.5583 6.58985 25.5583Z" fill="white"/>
</svg>
