<svg width="24" height="24" viewBox="0 0 24 24" fill="none" xmlns="http://www.w3.org/2000/svg">
<g clip-path="url(#clip0_340_31)">
<path d="M17.3364 12.2302C16.41 11.4136 15.5422 10.6136 14.733 9.83026C13.9237 9.04688 13.2203 8.28659 12.6228 7.54941C12.0252 6.81226 11.5509 6.09964 11.1996 5.41157C10.8484 4.7235 10.6728 4.06669 10.6728 3.44115C10.6728 2.4814 10.9969 1.66795 11.6449 1.00078C12.293 0.333594 13.0907 0 14.038 0C14.6015 0 15.173 0.169734 15.7526 0.509201C16.3322 0.848668 16.8601 1.33413 17.3364 1.96558C17.8127 1.33413 18.3387 0.848668 18.9145 0.509201C19.4902 0.169734 20.0627 0 20.632 0C21.5801 0 22.3785 0.333594 23.0271 1.00078C23.6757 1.66795 24 2.4814 24 3.44115C24 4.06669 23.8244 4.7235 23.4732 5.41157C23.122 6.09964 22.6457 6.81226 22.0443 7.54941C21.4429 8.28659 20.7358 9.04863 19.923 9.83551C19.1102 10.6224 18.248 11.4207 17.3364 12.2302ZM17.3364 10.2861C18.7129 9.05165 19.9403 7.82751 21.0185 6.61366C22.0968 5.3998 22.6359 4.34207 22.6359 3.44044C22.6359 2.84656 22.4504 2.3581 22.0795 1.97508C21.7086 1.59206 21.2299 1.40055 20.6434 1.40055C20.2962 1.40055 19.9341 1.49868 19.5572 1.69493C19.1803 1.89118 18.7753 2.27497 18.3422 2.84628L17.3364 4.14002L16.3191 2.84628C15.886 2.27497 15.4805 1.89118 15.1027 1.69493C14.7249 1.49868 14.369 1.40055 14.035 1.40055C13.4448 1.40055 12.9643 1.59206 12.5933 1.97508C12.2224 2.3581 12.037 2.84656 12.037 3.44044C12.037 4.34207 12.5761 5.3998 13.6543 6.61366C14.7325 7.82751 15.9599 9.05165 17.3364 10.2861ZM14.9318 24L5.46814 21.1822V22.8582H0V12.076H8.40922L15.9237 14.9555C16.3876 15.1296 16.7838 15.4224 17.1121 15.8339C17.4404 16.2453 17.6046 16.8515 17.6046 17.6523H21.3665C22.1079 17.6523 22.7014 17.9293 23.1468 18.4834C23.5923 19.0375 23.815 19.7876 23.815 20.7336V21.2036L14.9318 24ZM1.36412 21.4576H4.07396V13.4766H1.36412V21.4576ZM14.8231 22.5496L22.4023 20.1781C22.3206 19.7872 22.1935 19.5019 22.0208 19.3223C21.8482 19.1426 21.6301 19.0528 21.3665 19.0528H15.3295C14.7669 19.0528 14.2224 19.0137 13.696 18.9353C13.1696 18.857 12.6952 18.7498 12.2728 18.6137L9.80346 17.8303L10.3491 16.4558L12.5318 17.2202C13.0173 17.3848 13.4971 17.498 13.9711 17.5597C14.4451 17.6214 15.173 17.6523 16.1549 17.6523C16.1549 17.3342 16.1021 17.0528 15.9965 16.8083C15.891 16.5638 15.7164 16.3901 15.4728 16.2873L8.20113 13.4766H5.46814V19.7009L14.8231 22.5496Z" fill="white"/>
</g>
<defs>
<clipPath id="clip0_340_31">
<rect width="24" height="24" fill="white"/>
</clipPath>
</defs>
</svg>
