<svg width="24" height="24" viewBox="0 0 24 24" fill="none" xmlns="http://www.w3.org/2000/svg">
<path d="M8.38661 20.3654H15.6231C15.6936 20.3654 15.7545 20.3445 15.8058 20.3029C15.8571 20.2612 15.8955 20.2051 15.9212 20.1346L17.1116 15.4134H6.88851L8.08851 20.1346C8.10774 20.2051 8.143 20.2612 8.19428 20.3029C8.24557 20.3445 8.30967 20.3654 8.38661 20.3654ZM8.38661 21.5C8.05969 21.5 7.76692 21.4003 7.50831 21.2009C7.24971 21.0015 7.07517 20.7422 6.98468 20.423L5.71353 15.4134H18.2865L17.0154 20.423C16.9249 20.7358 16.7504 20.9934 16.4918 21.196C16.2331 21.3987 15.9436 21.5 15.6231 21.5H8.38661ZM5.13468 14.2788H18.8846C18.9744 14.2788 19.0481 14.25 19.1058 14.1923C19.1635 14.1346 19.1923 14.0609 19.1923 13.9711V11.8173H4.82698V13.9711C4.82698 14.0609 4.85583 14.1346 4.91353 14.1923C4.97122 14.25 5.04493 14.2788 5.13468 14.2788ZM12 8.32117C12.1218 6.98657 12.7237 5.77729 13.8058 4.69332C14.8878 3.60936 16.1013 3.00647 17.4462 2.88467C17.3513 4.13211 16.817 5.27569 15.8433 6.31542C14.8696 7.35516 13.7776 8.00002 12.5673 8.25002V10.6827H20.3269V13.9711C20.3269 14.3644 20.1848 14.7031 19.9007 14.9872C19.6166 15.2714 19.2779 15.4134 18.8846 15.4134H5.13468C4.74142 15.4134 4.40272 15.2714 4.11858 14.9872C3.83445 14.7031 3.69238 14.3644 3.69238 13.9711V10.6827H11.4327V8.25002C10.2225 8.00002 9.13467 7.35516 8.16931 6.31542C7.20392 5.27569 6.66546 4.13211 6.55391 2.88467C7.89877 3.00647 9.11479 3.60679 10.202 4.68562C11.2891 5.76446 11.8885 6.97631 12 8.32117Z" fill="white"/>
</svg>
