<svg width="24" height="24" viewBox="0 0 24 24" fill="none" xmlns="http://www.w3.org/2000/svg">
<path d="M6.50005 3.94235C6.50005 3.5502 6.6424 3.21177 6.9271 2.92707C7.2118 2.64237 7.55022 2.50002 7.94237 2.50002L16.0577 2.50002C16.441 2.50002 16.7772 2.64237 17.0663 2.92707C17.3554 3.21177 17.5 3.5502 17.5 3.94235L17.5 20.0577C17.5 20.4498 17.3554 20.7882 17.0663 21.0729C16.7772 21.3576 16.441 21.5 16.0577 21.5L7.94237 21.5C7.55022 21.5 7.2118 21.3576 6.9271 21.0729C6.6424 20.7882 6.50005 20.4498 6.50005 20.0577L6.50005 3.94235ZM7.63465 3.94235L7.63465 20.0577C7.63465 20.1346 7.6667 20.2051 7.7308 20.2692C7.79491 20.3333 7.86544 20.3654 7.94237 20.3654L16.0577 20.3654C16.1346 20.3654 16.2051 20.3333 16.2692 20.2692C16.3333 20.2051 16.3654 20.1346 16.3654 20.0577L16.3654 16.9327L12.3847 16.9327L12.3847 15.7981L16.3654 15.7981L16.3654 12.5673L12.3847 12.5673L12.3847 11.4327L16.3654 11.4327L16.3654 8.20192L12.3847 8.20192L12.3847 7.06732L16.3654 7.06732L16.3654 3.94235C16.3654 3.86541 16.3333 3.79489 16.2692 3.73077C16.2051 3.66667 16.1346 3.63462 16.0577 3.63462L7.94237 3.63462C7.86544 3.63462 7.79492 3.66667 7.7308 3.73077C7.6667 3.79489 7.63465 3.86541 7.63465 3.94235Z" fill="white"/>
</svg>
