<svg width="32" height="32" viewBox="0 0 32 32" fill="none" xmlns="http://www.w3.org/2000/svg">
<path d="M16.0307 24.9384C16.3265 24.9299 16.5517 24.8752 16.7064 24.7743C16.8611 24.6735 16.9384 24.5222 16.9384 24.3205C16.9384 24.1188 16.8589 23.9662 16.7 23.8628C16.541 23.7594 16.3111 23.7077 16.0102 23.7077C15.0855 23.7248 14.1055 23.426 13.0705 22.8115C12.0354 22.197 11.3846 21.1453 11.1179 19.6564C11.082 19.4564 11.0012 19.3038 10.8756 19.1987C10.75 19.0936 10.6111 19.041 10.4589 19.041C10.2658 19.041 10.1132 19.1162 10.0013 19.2666C9.88929 19.4171 9.85126 19.5923 9.88717 19.7923C10.2205 21.6248 11.0222 22.9427 12.2923 23.7461C13.5624 24.5495 14.8085 24.947 16.0307 24.9384ZM16 28.6666C13.1436 28.6666 10.7628 27.6863 8.8577 25.7256C6.95257 23.7649 6 21.323 6 18.4C6 16.3316 6.82778 14.0645 8.48333 11.5987C10.1389 9.13292 12.6444 6.44618 16 3.53851C19.3555 6.44618 21.861 9.13292 23.5166 11.5987C25.1722 14.0645 25.9999 16.3316 25.9999 18.4C25.9999 21.323 25.0474 23.7649 23.1422 25.7256C21.2371 27.6863 18.8564 28.6666 16 28.6666Z" fill="white"/>
</svg>
