<svg width="24" height="24" viewBox="0 0 24 24" fill="none" xmlns="http://www.w3.org/2000/svg">
<g clip-path="url(#clip0_340_26)">
<path d="M12 19.3654C12 17.8705 11.4497 16.5728 10.349 15.4721C9.24839 14.3715 7.95064 13.8212 6.45578 13.8212C6.45578 15.316 7.00609 16.6138 8.10673 17.7144C9.20736 18.8151 10.5051 19.3654 12 19.3654ZM12 13.9135C12.4243 13.9135 12.766 13.7824 13.025 13.5202C13.2839 13.258 13.4134 12.9147 13.4134 12.4904V12.3289C13.5339 12.4263 13.6711 12.4933 13.825 12.5298C13.9788 12.5664 14.1307 12.5846 14.2807 12.5846C14.7051 12.5846 15.05 12.4519 15.3154 12.1866C15.5807 11.9212 15.7134 11.5785 15.7134 11.1586C15.7134 10.8401 15.6416 10.5757 15.498 10.3654C15.3544 10.1551 15.1641 9.97117 14.9269 9.81348C15.1637 9.71348 15.354 9.54321 15.4978 9.30266C15.6415 9.06211 15.7134 8.78039 15.7134 8.45751C15.7134 8.03842 15.5807 7.69619 15.3154 7.43081C15.05 7.16542 14.7051 7.03273 14.2807 7.03273C14.1307 7.03273 13.9788 7.051 13.825 7.08753C13.6711 7.12406 13.5339 7.19426 13.4134 7.29811V7.10773C13.4134 6.68337 13.2839 6.3417 13.025 6.08273C12.766 5.82375 12.4243 5.69426 12 5.69426C11.5756 5.69426 11.234 5.82375 10.975 6.08273C10.716 6.3417 10.5865 6.68337 10.5865 7.10773V7.29811C10.466 7.19426 10.3288 7.12406 10.175 7.08753C10.0211 7.051 9.86923 7.03273 9.71923 7.03273C9.29486 7.03273 8.94998 7.16542 8.6846 7.43081C8.41922 7.69619 8.28653 8.03883 8.28653 8.45873C8.28653 8.77728 8.35576 9.04425 8.49423 9.25963C8.63269 9.47502 8.82564 9.66123 9.07308 9.81828C8.82564 9.92533 8.63269 10.0958 8.49423 10.3298C8.35576 10.5638 8.28653 10.8378 8.28653 11.1519C8.28653 11.5763 8.41922 11.9212 8.6846 12.1866C8.94998 12.4519 9.29486 12.5846 9.71923 12.5846C9.86923 12.5846 10.0237 12.5664 10.1827 12.5298C10.3416 12.4933 10.4763 12.4263 10.5865 12.3289V12.4904C10.5865 12.9147 10.716 13.258 10.975 13.5202C11.234 13.7824 11.5756 13.9135 12 13.9135ZM11.9949 11.8596C11.4202 11.8596 10.9347 11.6605 10.5385 11.2623C10.1423 10.8641 9.9442 10.3811 9.9442 9.81326C9.9442 9.24261 10.144 8.75735 10.5436 8.35748C10.9432 7.95763 11.4304 7.75771 12.0051 7.75771C12.5798 7.75771 13.0653 7.95687 13.4615 8.35521C13.8577 8.75356 14.0558 9.23918 14.0558 9.81208C14.0558 10.3822 13.856 10.866 13.4564 11.2635C13.0567 11.6609 12.5696 11.8596 11.9949 11.8596ZM12 19.3654C13.4948 19.3654 14.7926 18.8151 15.8932 17.7144C16.9939 16.6138 17.5442 15.316 17.5442 13.8212C16.0493 13.8212 14.7516 14.3715 13.6509 15.4721C12.5503 16.5728 12 17.8705 12 19.3654ZM3.94233 21.5C3.55018 21.5 3.21175 21.3576 2.92705 21.0729C2.64235 20.7882 2.5 20.4498 2.5 20.0577V3.94236C2.5 3.55021 2.64235 3.21178 2.92705 2.92708C3.21175 2.64238 3.55018 2.50003 3.94233 2.50003H20.0576C20.4498 2.50003 20.7882 2.64238 21.0729 2.92708C21.3576 3.21178 21.5 3.55021 21.5 3.94236V20.0577C21.5 20.4498 21.3576 20.7882 21.0729 21.0729C20.7882 21.3576 20.4498 21.5 20.0576 21.5H3.94233ZM3.94233 20.3654H20.0576C20.1346 20.3654 20.2051 20.3333 20.2692 20.2692C20.3333 20.2051 20.3654 20.1346 20.3654 20.0577V3.94236C20.3654 3.86542 20.3333 3.7949 20.2692 3.73078C20.2051 3.66668 20.1346 3.63463 20.0576 3.63463H3.94233C3.86539 3.63463 3.79487 3.66668 3.73075 3.73078C3.66665 3.7949 3.6346 3.86542 3.6346 3.94236V20.0577C3.6346 20.1346 3.66665 20.2051 3.73075 20.2692C3.79487 20.3333 3.86539 20.3654 3.94233 20.3654Z" fill="white"/>
</g>
<defs>
<clipPath id="clip0_340_26">
<rect width="24" height="24" fill="white"/>
</clipPath>
</defs>
</svg>
