<svg width="36" height="36" viewBox="0 0 36 36" fill="none" xmlns="http://www.w3.org/2000/svg">
<path d="M4.78851 27.75C4.19476 27.75 3.68576 27.5378 3.26151 27.1135C2.83721 26.6893 2.62506 26.1803 2.62506 25.5865V10.4135C2.62506 9.8198 2.8372 9.31079 3.26147 8.88651C3.68575 8.46221 4.19476 8.25006 4.78851 8.25006H19.9615C20.5552 8.25006 21.0643 8.46221 21.4885 8.88651C21.9128 9.31079 22.1249 9.8198 22.1249 10.4135V25.5865C22.1249 26.1803 21.9128 26.6893 21.4885 27.1135C21.0643 27.5378 20.5552 27.75 19.9615 27.75H4.78851ZM26.4878 16.5C26.0965 16.5 25.7716 16.3707 25.5129 16.112C25.2543 15.8534 25.1249 15.5284 25.1249 15.1371V9.61296C25.1249 9.22169 25.2543 8.89673 25.5129 8.63808C25.7716 8.3794 26.0965 8.25006 26.4878 8.25006H32.012C32.4033 8.25006 32.7283 8.3794 32.9869 8.63808C33.2456 8.89673 33.3749 9.22169 33.3749 9.61296V15.1371C33.3749 15.5284 33.2456 15.8534 32.9869 16.112C32.7283 16.3707 32.4033 16.5 32.012 16.5H26.4878ZM6.51925 22.4279H18.2308L14.4375 17.3654L11.625 21.1154L9.56252 18.3779L6.51925 22.4279ZM26.4878 27.75C26.0965 27.75 25.7716 27.6206 25.5129 27.362C25.2543 27.1033 25.1249 26.7784 25.1249 26.3871V20.8629C25.1249 20.4716 25.2543 20.1467 25.5129 19.888C25.7716 19.6294 26.0965 19.5 26.4878 19.5H32.012C32.4033 19.5 32.7283 19.6294 32.9869 19.888C33.2456 20.1467 33.3749 20.4716 33.3749 20.8629V26.3871C33.3749 26.7784 33.2456 27.1033 32.9869 27.362C32.7283 27.6206 32.4033 27.75 32.012 27.75H26.4878Z" fill="black"/>
</svg>
