<svg width="36" height="36" viewBox="0 0 36 36" fill="none" xmlns="http://www.w3.org/2000/svg">
<path d="M12.5799 32.25C12.0895 32.25 11.6501 32.0985 11.2616 31.7956C10.8731 31.4928 10.6116 31.1057 10.477 30.6346L8.67123 23.524H27.3288L25.523 30.6346C25.3884 31.1057 25.1269 31.4928 24.7384 31.7956C24.3499 32.0985 23.9153 32.25 23.4346 32.25H12.5799ZM18 12.4818C18.1827 10.4799 19.0856 8.66595 20.7086 7.04C22.3317 5.41405 24.1519 4.50973 26.1692 4.32703C26.0269 6.19818 25.2254 7.91355 23.7648 9.47315C22.3043 11.0328 20.6663 12 18.8509 12.375V16.0241H30.4903V20.3077C30.4903 20.9039 30.2788 21.4135 29.8557 21.8366C29.4326 22.2596 28.923 22.4712 28.3269 22.4712H7.70196C7.10581 22.4712 6.5962 22.2596 6.17313 21.8366C5.75005 21.4135 5.53851 20.9039 5.53851 20.3077V16.0241H17.149V12.375C15.3337 12 13.702 11.0328 12.2539 9.47315C10.8058 7.91355 9.99813 6.19818 9.8308 4.32703C11.8481 4.50973 13.6721 5.4102 15.3029 7.02845C16.9336 8.6467 17.8327 10.4645 18 12.4818Z" fill="black"/>
</svg>
