<svg width="48" height="48" viewBox="0 0 48 48" fill="none" xmlns="http://www.w3.org/2000/svg">
<path fill-rule="evenodd" clip-rule="evenodd" d="M23.5714 47.1429C36.5896 47.1429 47.1429 36.5896 47.1429 23.5714C47.1429 10.5533 36.5896 0 23.5714 0C10.5533 0 0 10.5533 0 23.5714C0 36.5896 10.5533 47.1429 23.5714 47.1429ZM25.4286 25.5353H34.3572C34.8308 25.5353 35.285 25.3458 35.6199 25.0084C35.9547 24.671 36.1429 24.2134 36.1429 23.7363C36.1429 23.2591 35.9547 22.8015 35.6199 22.4641C35.285 22.1267 34.8308 21.9372 34.3572 21.9372H25.4286V12.9419C25.4286 12.4647 25.2405 12.0071 24.9056 11.6698C24.5707 11.3324 24.1165 11.1428 23.6429 11.1428C23.1693 11.1428 22.7151 11.3324 22.3802 11.6698C22.0453 12.0071 21.8572 12.4647 21.8572 12.9419V21.9372H12.9286C12.455 21.9372 12.0008 22.1267 11.6659 22.4641C11.331 22.8015 11.1429 23.2591 11.1429 23.7363C11.1429 24.2134 11.331 24.671 11.6659 25.0084C12.0008 25.3458 12.455 25.5353 12.9286 25.5353H21.8572V34.5306C21.8572 35.0078 22.0453 35.4654 22.3802 35.8028C22.7151 36.1402 23.1693 36.3297 23.6429 36.3297C24.1165 36.3297 24.5707 36.1402 24.9056 35.8028C25.2405 35.4654 25.4286 35.0078 25.4286 34.5306V25.5353Z" fill="black"/>
</svg>
