<?xml version="1.0" encoding="UTF-8" standalone="no"?>
<svg
   width="32"
   height="32"
   viewBox="0 0 32 32"
   fill="none"
   version="1.1"
   id="svg364"
   sodipodi:docname="can-black.svg"
   inkscape:version="1.2.1 (9c6d41e410, 2022-07-14)"
   xmlns:inkscape="http://www.inkscape.org/namespaces/inkscape"
   xmlns:sodipodi="http://sodipodi.sourceforge.net/DTD/sodipodi-0.dtd"
   xmlns="http://www.w3.org/2000/svg"
   xmlns:svg="http://www.w3.org/2000/svg">
  <defs
     id="defs368" />
  <sodipodi:namedview
     id="namedview366"
     pagecolor="#ffffff"
     bordercolor="#000000"
     borderopacity="0.25"
     inkscape:showpageshadow="2"
     inkscape:pageopacity="0.0"
     inkscape:pagecheckerboard="0"
     inkscape:deskcolor="#d1d1d1"
     showgrid="false"
     inkscape:zoom="25.125"
     inkscape:cx="16"
     inkscape:cy="16.0199"
     inkscape:window-width="1920"
     inkscape:window-height="991"
     inkscape:window-x="-9"
     inkscape:window-y="-9"
     inkscape:window-maximized="1"
     inkscape:current-layer="svg364" />
  <path
     d="M24.6667 9.95998C23.68 10.9333 23.4267 12.3333 23.8934 13.5333L20 17.4267V14.6666C20 13.9333 19.4 13.3333 18.6667 13.3333H17.2934C17.3334 13.1067 17.3334 12.8933 17.3334 12.6666C17.3334 8.61332 14.0534 5.33332 10 5.33332C8.48961 5.3319 7.01565 5.79716 5.77976 6.66545C4.54387 7.53373 3.60641 8.76265 3.09563 10.1841C2.58485 11.6055 2.52569 13.15 2.92625 14.6064C3.3268 16.0627 4.16751 17.3597 5.33336 18.32V26.6666C5.33336 27.4 5.93336 28 6.66669 28H18.6667C19.4 28 20 27.4 20 26.6666V21.1867L25.7734 15.4133C26.9734 15.88 28.3734 15.64 29.3334 14.6666L24.6667 9.95998ZM5.40003 13.3333C5.37336 13.1067 5.33336 12.8933 5.33336 12.6666C5.33336 10.0933 7.42669 7.99998 10 7.99998C12.5734 7.99998 14.6667 10.0933 14.6667 12.6666C14.6667 12.8933 14.6267 13.1067 14.6 13.3333"
     fill="white"
     id="path362"
     style="fill:#000000" />
</svg>
