<svg width="36" height="36" viewBox="0 0 36 36" fill="none" xmlns="http://www.w3.org/2000/svg">
<path d="M18 17.5154C16.5563 17.5154 15.366 17.047 14.4293 16.1102C13.4925 15.1734 13.0241 13.9832 13.0241 12.5395C13.0241 11.0861 13.4925 9.89344 14.4293 8.96146C15.366 8.02951 16.5563 7.56354 18 7.56354C19.4437 7.56354 20.634 8.02951 21.5708 8.96146C22.5075 9.89344 22.9759 11.0861 22.9759 12.5395C22.9759 13.9832 22.5075 15.1734 21.5708 16.1102C20.634 17.047 19.4437 17.5154 18 17.5154ZM6.75006 28.9615V26.1144C6.75006 25.3087 6.96352 24.6068 7.39045 24.0087C7.81737 23.4106 8.37219 22.951 9.05489 22.6298C10.6337 21.9279 12.1558 21.3991 13.6212 21.0433C15.0866 20.6875 16.5462 20.5097 18 20.5097C19.4539 20.5097 20.9096 20.6914 22.3673 21.0548C23.825 21.4183 25.3433 21.9433 26.9221 22.6298C27.6202 22.951 28.1827 23.4106 28.6096 24.0087C29.0365 24.6068 29.25 25.3087 29.25 26.1144V28.9615H6.75006Z" fill="black"/>
</svg>
