<svg width="24" height="24" viewBox="0 0 24 24" fill="none" xmlns="http://www.w3.org/2000/svg">
<path d="M12 21.5C10.7513 21.5 9.6891 21.0622 8.81345 20.1865C7.93782 19.3109 7.5 18.2487 7.5 17C7.5 16.2077 7.68847 15.4638 8.0654 14.7683C8.44232 14.0728 8.98654 13.5545 9.69808 13.2135V4.80192C9.69808 4.15396 9.92058 3.60831 10.3656 3.165C10.8106 2.72168 11.3546 2.50002 11.9977 2.50002C12.6408 2.50002 13.1856 2.72168 13.6321 3.165C14.0786 3.60831 14.3019 4.15396 14.3019 4.80192V13.2135C15.0134 13.5545 15.5576 14.0721 15.9345 14.7662C16.3115 15.4603 16.5 16.2049 16.5 17C16.5 18.2487 16.0621 19.3109 15.1865 20.1865C14.3108 21.0622 13.2487 21.5 12 21.5ZM10.8327 11.2788H13.1673V9.8H12V8.93077H13.1673V6.68847H12V5.83175H13.1673V4.80192C13.1673 4.47119 13.0551 4.19396 12.8308 3.97022C12.6065 3.74649 12.3285 3.63462 11.9969 3.63462C11.6653 3.63462 11.3884 3.74649 11.1661 3.97022C10.9438 4.19396 10.8327 4.47119 10.8327 4.80192V11.2788Z" fill="white"/>
</svg>
