<svg width="18" height="18" viewBox="0 0 18 18" fill="none" xmlns="http://www.w3.org/2000/svg">
<path d="M5.07157 5.78561C5.78197 5.78561 6.46327 5.5034 6.9656 5.00107C7.46793 4.49874 7.75014 3.81744 7.75014 3.10704C7.75014 2.39664 7.46793 1.71533 6.9656 1.213C6.46327 0.710673 5.78197 0.428467 5.07157 0.428467C4.36117 0.428467 3.67986 0.710673 3.17753 1.213C2.6752 1.71533 2.393 2.39664 2.393 3.10704C2.393 3.81744 2.6752 4.49874 3.17753 5.00107C3.67986 5.5034 4.36117 5.78561 5.07157 5.78561ZM0.428711 8.27275C0.428711 7.49061 1.06228 6.85704 1.84443 6.85704H5.84442C5.53138 7.64683 5.52603 8.52532 5.82943 9.31887C6.13283 10.1124 6.7229 10.7633 7.483 11.1428H5.77371C5.35159 11.1428 4.93899 11.2682 4.58826 11.5031C4.23753 11.738 3.96446 12.0717 3.80371 12.462C2.37157 12.197 1.513 11.482 1.02228 10.6835C0.428711 9.72132 0.428711 8.72704 0.428711 8.55561V8.27275ZM10.5166 11.1428H12.2273C13.1166 11.1428 13.8787 11.6878 14.1973 12.462C15.6294 12.197 16.488 11.482 16.9787 10.6835C17.5716 9.72061 17.5716 8.72632 17.5716 8.55489V8.27275C17.5716 7.89728 17.4224 7.53719 17.1569 7.27169C16.8914 7.00619 16.5313 6.85704 16.1559 6.85704H12.1559C12.4689 7.64683 12.4742 8.52532 12.1708 9.31887C11.8674 10.1124 11.2774 10.7633 10.5173 11.1428H10.5166ZM15.6073 3.10704C15.6073 3.81744 15.3251 4.49874 14.8227 5.00107C14.3204 5.5034 13.6391 5.78561 12.9287 5.78561C12.2183 5.78561 11.537 5.5034 11.0347 5.00107C10.5323 4.49874 10.2501 3.81744 10.2501 3.10704C10.2501 2.39664 10.5323 1.71533 11.0347 1.213C11.537 0.710673 12.2183 0.428467 12.9287 0.428467C13.6391 0.428467 14.3204 0.710673 14.8227 1.213C15.3251 1.71533 15.6073 2.39664 15.6073 3.10704ZM4.35728 13.2728C4.35728 12.4906 4.99085 11.857 5.773 11.857H12.2273C13.0094 11.857 13.643 12.4906 13.643 13.2728V13.5549C13.643 13.7263 13.643 14.7206 13.0501 15.6835C12.4287 16.6949 11.2187 17.5713 9.00014 17.5713C6.78157 17.5713 5.57157 16.6942 4.95014 15.6842C4.35728 14.7206 4.35728 13.727 4.35728 13.5549V13.2728ZM9.00014 10.7856C9.71054 10.7856 10.3918 10.5034 10.8942 10.0011C11.3965 9.49874 11.6787 8.81744 11.6787 8.10704C11.6787 7.39664 11.3965 6.71533 10.8942 6.213C10.3918 5.71067 9.71054 5.42847 9.00014 5.42847C8.28974 5.42847 7.60843 5.71067 7.1061 6.213C6.60377 6.71533 6.32157 7.39664 6.32157 8.10704C6.32157 8.81744 6.60377 9.49874 7.1061 10.0011C7.60843 10.5034 8.28974 10.7856 9.00014 10.7856Z" fill="#054D3B"/>
</svg>
