<svg width="20" height="20" viewBox="0 0 20 20" fill="none" xmlns="http://www.w3.org/2000/svg">
<path d="M5.41667 1.25C4.91939 1.25 4.44247 1.44754 4.09084 1.79917C3.73921 2.15081 3.54167 2.62772 3.54167 3.125C3.54167 3.62228 3.73921 4.09919 4.09084 4.45082C4.44247 4.80246 4.91939 5 5.41667 5C5.91395 5 6.39086 4.80246 6.74249 4.45082C7.09412 4.09919 7.29167 3.62228 7.29167 3.125C7.29167 2.62772 7.09412 2.15081 6.74249 1.79917C6.39086 1.44754 5.91395 1.25 5.41667 1.25ZM2.29167 3.125C2.29167 2.2962 2.62091 1.50134 3.20696 0.915291C3.79301 0.32924 4.58787 0 5.41667 0C6.24547 0 7.04032 0.32924 7.62638 0.915291C8.21243 1.50134 8.54167 2.2962 8.54167 3.125C8.54167 3.9538 8.21243 4.74866 7.62638 5.33471C7.04032 5.92076 6.24547 6.25 5.41667 6.25C4.58787 6.25 3.79301 5.92076 3.20696 5.33471C2.62091 4.74866 2.29167 3.9538 2.29167 3.125ZM0 9.15167C0 8.23917 0.739167 7.5 1.65167 7.5H6.31833C6.16029 7.89909 6.06853 8.32132 6.04667 8.75H1.65167C1.54514 8.75 1.44297 8.79232 1.36765 8.86765C1.29232 8.94297 1.25 9.04514 1.25 9.15167V9.47917C1.25 9.6225 1.25167 10.49 1.75583 11.31C2.18917 12.0133 3.05083 12.7758 4.88333 12.8992C4.45958 13.1745 4.12945 13.572 3.93667 14.0392C2.26583 13.73 1.26417 12.8958 0.691667 11.9642C-4.96705e-08 10.8417 0 9.68167 0 9.48167V9.15167ZM13.6808 7.5C13.8358 7.89 13.9308 8.31083 13.9525 8.75H18.3483C18.57 8.75 18.75 8.93 18.75 9.15167V9.47917C18.75 9.6225 18.7483 10.49 18.2433 11.31C17.8108 12.0133 16.95 12.7758 15.1167 12.8992C15.5375 13.1725 15.87 13.57 16.0633 14.0392C17.7342 13.73 18.7358 12.8958 19.3083 11.9642C20 10.8408 20 9.68083 20 9.48083V9.15167C20 8.71362 19.826 8.29351 19.5162 7.98376C19.2065 7.67401 18.7864 7.5 18.3483 7.5H13.6808ZM14.5833 1.25C14.0861 1.25 13.6091 1.44754 13.2575 1.79917C12.9059 2.15081 12.7083 2.62772 12.7083 3.125C12.7083 3.62228 12.9059 4.09919 13.2575 4.45082C13.6091 4.80246 14.0861 5 14.5833 5C15.0806 5 15.5575 4.80246 15.9092 4.45082C16.2608 4.09919 16.4583 3.62228 16.4583 3.125C16.4583 2.62772 16.2608 2.15081 15.9092 1.79917C15.5575 1.44754 15.0806 1.25 14.5833 1.25ZM11.4583 3.125C11.4583 2.2962 11.7876 1.50134 12.3736 0.915291C12.9597 0.32924 13.7545 0 14.5833 0C15.4121 0 16.207 0.32924 16.793 0.915291C17.3791 1.50134 17.7083 2.2962 17.7083 3.125C17.7083 3.9538 17.3791 4.74866 16.793 5.33471C16.207 5.92076 15.4121 6.25 14.5833 6.25C13.7545 6.25 12.9597 5.92076 12.3736 5.33471C11.7876 4.74866 11.4583 3.9538 11.4583 3.125ZM4.58333 14.985C4.58333 14.0725 5.3225 13.3333 6.235 13.3333H13.765C14.6775 13.3333 15.4167 14.0725 15.4167 14.985V15.3142C15.4167 15.5142 15.4167 16.6742 14.725 17.7975C14 18.9775 12.5883 20 10 20C7.41167 20 6 18.9767 5.275 17.7983C4.58333 16.6742 4.58333 15.515 4.58333 15.3142V14.985ZM6.235 14.5833C6.12847 14.5833 6.02631 14.6257 5.95098 14.701C5.87565 14.7763 5.83333 14.8785 5.83333 14.985V15.3125C5.83333 15.4558 5.835 16.3233 6.33917 17.1433C6.8125 17.9117 7.79667 18.75 10 18.75C12.2033 18.75 13.1875 17.9117 13.66 17.1433C14.165 16.3242 14.1667 15.4558 14.1667 15.3125V14.985C14.1667 14.8785 14.1243 14.7763 14.049 14.701C13.9737 14.6257 13.8715 14.5833 13.765 14.5833H6.235ZM8.125 8.95833C8.125 8.7121 8.1735 8.46829 8.26773 8.2408C8.36195 8.01332 8.50006 7.80662 8.67417 7.63251C8.84828 7.4584 9.05498 7.32029 9.28247 7.22606C9.50995 7.13183 9.75377 7.08333 10 7.08333C10.2462 7.08333 10.49 7.13183 10.7175 7.22606C10.945 7.32029 11.1517 7.4584 11.3258 7.63251C11.4999 7.80662 11.638 8.01332 11.7323 8.2408C11.8265 8.46829 11.875 8.7121 11.875 8.95833C11.875 9.45561 11.6775 9.93253 11.3258 10.2842C10.9742 10.6358 10.4973 10.8333 10 10.8333C9.50272 10.8333 9.02581 10.6358 8.67417 10.2842C8.32254 9.93253 8.125 9.45561 8.125 8.95833ZM10 5.83333C9.1712 5.83333 8.37634 6.16257 7.79029 6.74862C7.20424 7.33468 6.875 8.12953 6.875 8.95833C6.875 9.78713 7.20424 10.582 7.79029 11.168C8.37634 11.7541 9.1712 12.0833 10 12.0833C10.8288 12.0833 11.6237 11.7541 12.2097 11.168C12.7958 10.582 13.125 9.78713 13.125 8.95833C13.125 8.12953 12.7958 7.33468 12.2097 6.74862C11.6237 6.16257 10.8288 5.83333 10 5.83333Z" fill="#054D3B"/>
</svg>
