<svg width="43" height="43" viewBox="0 0 43 43" fill="none" xmlns="http://www.w3.org/2000/svg">
<path d="M15.3188 39.4168C14.4826 39.4168 13.751 39.163 13.124 38.6553C12.4969 38.1477 12.0788 37.4907 11.8698 36.6845L9.85417 28.6668H33.1458L31.1302 36.6845C30.9212 37.4907 30.5031 38.1477 29.876 38.6553C29.249 39.163 28.5174 39.4168 27.6813 39.4168H15.3188ZM12.0938 3.67303C14.7514 4.0015 16.9838 5.17385 18.791 7.19007C20.5982 9.20629 21.5012 11.5874 21.5 14.3334C21.5 11.5862 22.4036 9.2045 24.2108 7.18828C26.018 5.17205 28.2498 4.0003 30.9063 3.67303C31.2646 3.6133 31.5781 3.71782 31.8469 3.98657C32.1156 4.25532 32.2201 4.56886 32.1604 4.92719C31.8618 7.28622 30.8913 9.30961 29.249 10.9974C27.6066 12.6851 25.6208 13.7374 23.2917 14.1543V17.9168H35.8333C36.341 17.9168 36.7668 18.0888 37.1108 18.4328C37.4548 18.7768 37.6262 19.202 37.625 19.7084V23.2918C37.625 24.2772 37.2738 25.1211 36.5715 25.8234C35.8692 26.5257 35.0259 26.8763 34.0417 26.8751H8.95834C7.97292 26.8751 7.12904 26.5239 6.42671 25.8216C5.72438 25.1193 5.37381 24.276 5.375 23.2918V19.7084C5.375 19.2008 5.547 18.775 5.891 18.431C6.235 18.087 6.66023 17.9156 7.16667 17.9168H19.7083V14.1543C17.3792 13.7362 15.3934 12.6833 13.751 10.9956C12.1087 9.30782 11.1382 7.28503 10.8396 4.92719C10.7799 4.56886 10.8844 4.25532 11.1531 3.98657C11.4219 3.71782 11.7354 3.6133 12.0938 3.67303Z" fill="#054D3B"/>
</svg>
