<svg width="50" height="50" viewBox="0 0 50 50" fill="none" xmlns="http://www.w3.org/2000/svg">
<path d="M32.1229 38.2091C32.2766 38.4449 32.3638 38.7177 32.3753 38.999C32.3867 39.2802 32.322 39.5593 32.188 39.8068C32.0539 40.0543 31.8555 40.2609 31.6137 40.405C31.3719 40.549 31.0957 40.6251 30.8143 40.6251H1.99786C1.7164 40.6251 1.44018 40.549 1.19838 40.405C0.956583 40.2609 0.758179 40.0543 0.624134 39.8068C0.490089 39.5593 0.42538 39.2802 0.436844 38.999C0.448308 38.7177 0.535518 38.4449 0.689262 38.2091C2.88869 34.8236 6.12382 32.24 9.91192 30.8439C7.81777 29.4497 6.22788 27.4186 5.37734 25.051C4.52681 22.6834 4.46079 20.1049 5.18905 17.6968C5.91731 15.2887 7.40118 13.179 9.42124 11.6795C11.4413 10.18 13.8903 9.37036 16.4061 9.37036C18.9218 9.37036 21.3708 10.18 23.3909 11.6795C25.4109 13.179 26.8948 15.2887 27.6231 17.6968C28.3513 20.1049 28.2853 22.6834 27.4348 25.051C26.5842 27.4186 24.9943 29.4497 22.9002 30.8439C26.6883 32.24 29.9234 34.8236 32.1229 38.2091ZM49.2928 38.1798C47.0928 34.8086 43.8649 32.2361 40.0877 30.8439C42.5599 29.1785 44.3047 26.6337 44.9667 23.7274C45.6288 20.821 45.1584 17.7716 43.6514 15.1998C42.1444 12.628 39.7139 10.7271 36.8548 9.88416C33.9957 9.04117 30.9227 9.31941 28.2615 10.6622C28.1598 10.7148 28.0708 10.789 28.0009 10.8798C27.9311 10.9705 27.882 11.0755 27.8572 11.1873C27.8324 11.2991 27.8325 11.415 27.8575 11.5268C27.8825 11.6386 27.9317 11.7435 28.0018 11.8341C29.9806 14.3025 31.1171 17.3396 31.2446 20.5007C31.3722 23.6618 30.4842 26.7807 28.7107 29.4005C28.5961 29.5717 28.5538 29.7813 28.5929 29.9836C28.632 30.1859 28.7495 30.3645 28.9197 30.4806C31.232 32.0944 33.2115 34.1389 34.7498 36.5021C35.3702 37.4522 35.6236 38.5956 35.4627 39.7189C35.4446 39.8306 35.451 39.9449 35.4814 40.054C35.5119 40.163 35.5656 40.2641 35.639 40.3503C35.7124 40.4365 35.8036 40.5057 35.9064 40.5531C36.0091 40.6006 36.121 40.6252 36.2342 40.6251H48.0115C48.3556 40.6252 48.6901 40.5118 48.963 40.3023C49.236 40.0929 49.4323 39.7993 49.5213 39.4669C49.5756 39.2483 49.5833 39.0208 49.544 38.799C49.5046 38.5773 49.419 38.3663 49.2928 38.1798Z" fill="#054D3B"/>
</svg>
