<svg width="18" height="20" viewBox="0 0 18 20" fill="none" xmlns="http://www.w3.org/2000/svg">
<path d="M5.55 20.0001C5.08334 20.0001 4.675 19.8584 4.325 19.5751C3.975 19.2918 3.74167 18.9251 3.625 18.4751L2.5 14.0001H15.5L14.375 18.4751C14.2583 18.9251 14.025 19.2918 13.675 19.5751C13.325 19.8584 12.9167 20.0001 12.45 20.0001H5.55ZM3.75 0.0501065C5.23334 0.23344 6.47934 0.887773 7.488 2.01311C8.49667 3.13844 9.00067 4.46744 9 6.00011C9 4.46677 9.50433 3.13744 10.513 2.01211C11.5217 0.886773 12.7673 0.232773 14.25 0.0501065C14.45 0.0167732 14.625 0.0751065 14.775 0.225106C14.925 0.375107 14.9833 0.550107 14.95 0.750107C14.7833 2.06677 14.2417 3.19611 13.325 4.13811C12.4083 5.08011 11.3 5.66744 10 5.90011V8.00011H17C17.2833 8.00011 17.521 8.09611 17.713 8.28811C17.905 8.48011 18.0007 8.71744 18 9.00011V11.0001C18 11.5501 17.804 12.0211 17.412 12.4131C17.02 12.8051 16.5493 13.0008 16 13.0001H2C1.45 13.0001 0.979002 12.8041 0.587002 12.4121C0.195002 12.0201 -0.000664969 11.5494 1.69779e-06 11.0001V9.00011C1.69779e-06 8.71677 0.0960018 8.47911 0.288002 8.28711C0.480002 8.09511 0.717335 7.99944 1 8.00011H8V5.90011C6.7 5.66677 5.59167 5.07911 4.675 4.13711C3.75834 3.19511 3.21667 2.06611 3.05 0.750107C3.01667 0.550107 3.075 0.375107 3.225 0.225106C3.375 0.0751065 3.55 0.0167732 3.75 0.0501065Z" fill="#054D3B"/>
</svg>
