<svg width="32" height="31" viewBox="0 0 32 31" fill="none" xmlns="http://www.w3.org/2000/svg">
<path d="M16 17.6663C15.6735 17.6663 15.3953 17.5581 15.1654 17.3417C14.9355 17.1253 14.8205 16.8635 14.8205 16.5562C14.8205 16.2489 14.9355 15.987 15.1654 15.7706C15.3953 15.5542 15.6735 15.446 16 15.446C16.3265 15.446 16.6047 15.5542 16.8346 15.7706C17.0645 15.987 17.1795 16.2489 17.1795 16.5562C17.1795 16.8635 17.0645 17.1253 16.8346 17.3417C16.6047 17.5581 16.3265 17.6663 16 17.6663ZM10.6667 17.6663C10.3402 17.6663 10.062 17.5581 9.83205 17.3417C9.60214 17.1253 9.48719 16.8635 9.48719 16.5562C9.48719 16.2489 9.60214 15.987 9.83205 15.7706C10.062 15.5542 10.3402 15.446 10.6667 15.446C10.9931 15.446 11.2713 15.5542 11.5013 15.7706C11.7312 15.987 11.8461 16.2489 11.8461 16.5562C11.8461 16.8635 11.7312 17.1253 11.5013 17.3417C11.2713 17.5581 10.9931 17.6663 10.6667 17.6663ZM21.3333 17.6663C21.0068 17.6663 20.7286 17.5581 20.4987 17.3417C20.2688 17.1253 20.1539 16.8635 20.1539 16.5562C20.1539 16.2489 20.2688 15.987 20.4987 15.7706C20.7286 15.5542 21.0068 15.446 21.3333 15.446C21.6598 15.446 21.938 15.5542 22.1679 15.7706C22.3978 15.987 22.5128 16.2489 22.5128 16.5562C22.5128 16.8635 22.3978 17.1253 22.1679 17.3417C21.938 17.5581 21.6598 17.6663 21.3333 17.6663ZM16 22.5897C15.6735 22.5897 15.3953 22.4815 15.1654 22.2651C14.9355 22.0487 14.8205 21.7869 14.8205 21.4796C14.8205 21.1723 14.9355 20.9104 15.1654 20.694C15.3953 20.4776 15.6735 20.3694 16 20.3694C16.3265 20.3694 16.6047 20.4776 16.8346 20.694C17.0645 20.9104 17.1795 21.1723 17.1795 21.4796C17.1795 21.7869 17.0645 22.0487 16.8346 22.2651C16.6047 22.4815 16.3265 22.5897 16 22.5897ZM10.6667 22.5897C10.3402 22.5897 10.062 22.4815 9.83205 22.2651C9.60214 22.0487 9.48719 21.7869 9.48719 21.4796C9.48719 21.1723 9.60214 20.9104 9.83205 20.694C10.062 20.4776 10.3402 20.3694 10.6667 20.3694C10.9931 20.3694 11.2713 20.4776 11.5013 20.694C11.7312 20.9104 11.8461 21.1723 11.8461 21.4796C11.8461 21.7869 11.7312 22.0487 11.5013 22.2651C11.2713 22.4815 10.9931 22.5897 10.6667 22.5897ZM21.3333 22.5897C21.0068 22.5897 20.7286 22.4815 20.4987 22.2651C20.2688 22.0487 20.1539 21.7869 20.1539 21.4796C20.1539 21.1723 20.2688 20.9104 20.4987 20.694C20.7286 20.4776 21.0068 20.3694 21.3333 20.3694C21.6598 20.3694 21.938 20.4776 22.1679 20.694C22.3978 20.9104 22.5128 21.1723 22.5128 21.4796C22.5128 21.7869 22.3978 22.0487 22.1679 22.2651C21.938 22.4815 21.6598 22.5897 21.3333 22.5897ZM6.58979 26.9822C6.06692 26.9822 5.61569 26.8035 5.23609 26.4462C4.85649 26.0889 4.66669 25.6642 4.66669 25.1721V6.999C4.66669 6.50686 4.85649 6.08214 5.23609 5.72485C5.61569 5.36755 6.06692 5.1889 6.58979 5.1889H9.05132V2.99268H10.7308V5.1889H21.3205V2.99268H22.9615V5.1889H25.4102C25.9331 5.1889 26.3843 5.36755 26.7639 5.72485C27.1435 6.08214 27.3333 6.50686 27.3333 6.999V25.1721C27.3333 25.6642 27.1435 26.0889 26.7639 26.4462C26.3843 26.8035 25.9331 26.9822 25.4102 26.9822H6.58979ZM6.58979 25.5583H25.4102C25.5128 25.5583 25.6068 25.518 25.6923 25.4376C25.7778 25.3571 25.8205 25.2686 25.8205 25.1721V12.7067H6.17949V25.1721C6.17949 25.2686 6.22222 25.3571 6.30769 25.4376C6.39318 25.518 6.48721 25.5583 6.58979 25.5583Z" fill="#054D3B"/>
</svg>
