<svg width="20" height="21" viewBox="0 0 20 21" fill="none" xmlns="http://www.w3.org/2000/svg">
<path d="M13.0626 14.3542L14.0001 13.4167L10.6876 10.0833V5.89583H9.43758V10.5833L13.0626 14.3542ZM10.0001 18.6667C8.86119 18.6667 7.7848 18.4479 6.77091 18.0104C5.75703 17.5729 4.87161 16.9757 4.11466 16.2187C3.35772 15.4618 2.7605 14.5764 2.323 13.5625C1.8855 12.5486 1.66675 11.4722 1.66675 10.3333C1.66675 9.19444 1.8855 8.11806 2.323 7.10417C2.7605 6.09028 3.35772 5.20486 4.11466 4.44792C4.87161 3.69097 5.75703 3.09375 6.77091 2.65625C7.7848 2.21875 8.86119 2 10.0001 2C11.139 2 12.2154 2.21875 13.2292 2.65625C14.2431 3.09375 15.1286 3.69097 15.8855 4.44792C16.6424 5.20486 17.2397 6.09028 17.6772 7.10417C18.1147 8.11806 18.3334 9.19444 18.3334 10.3333C18.3334 11.4722 18.1147 12.5486 17.6772 13.5625C17.2397 14.5764 16.6424 15.4618 15.8855 16.2187C15.1286 16.9757 14.2431 17.5729 13.2292 18.0104C12.2154 18.4479 11.139 18.6667 10.0001 18.6667Z" fill="#054D3B"/>
</svg>
