<svg width="32" height="31" viewBox="0 0 32 31" fill="none" xmlns="http://www.w3.org/2000/svg">
<path d="M15.134 5.04297V0H16.866V5.04297H15.134ZM24.1262 8.56059L22.9196 7.42493L26.6862 3.80227L27.9222 4.98769L24.1262 8.56059ZM26.6422 15.875V14.2447H32V15.875H26.6422ZM15.134 30.1197V25.0905H16.866V30.1197L15.134 30.1197ZM7.87965 8.52467L4.06312 5.00151L5.31375 3.85199L9.10971 7.4111L7.87965 8.52467ZM26.7244 26.2953L22.9196 22.6947L24.1028 21.595L27.931 25.0961L26.7244 26.2953ZM0 15.875V14.2447H5.3578V15.875H0ZM5.32253 26.2953L4.09247 25.1181L7.8356 21.595L8.46972 22.1476L9.11853 22.7224L5.32253 26.2953ZM16.0035 22.9628C13.6721 22.9628 11.6893 22.1948 10.0551 20.6587C8.4208 19.1227 7.60367 17.2574 7.60367 15.0631C7.60367 12.8687 8.41965 11.0024 10.0516 9.46422C11.6835 7.92599 13.6652 7.15688 15.9965 7.15688C18.3279 7.15688 20.3107 7.9249 21.9449 9.46096C23.5792 10.997 24.3963 12.8622 24.3963 15.0566C24.3963 17.2509 23.5804 19.1172 21.9484 20.6554C20.3165 22.1937 18.3348 22.9628 16.0035 22.9628Z" fill="white"/>
</svg>
