<svg width="14" height="19" viewBox="0 0 14 19" fill="none" xmlns="http://www.w3.org/2000/svg">
<path d="M6.99992 14.1666C7.44195 14.1666 7.86587 13.9911 8.17843 13.6785C8.49099 13.3659 8.66659 12.942 8.66659 12.5C8.66659 12.058 8.49099 11.634 8.17843 11.3215C7.86587 11.0089 7.44195 10.8333 6.99992 10.8333C6.55789 10.8333 6.13397 11.0089 5.82141 11.3215C5.50885 11.634 5.33325 12.058 5.33325 12.5C5.33325 12.942 5.50885 13.3659 5.82141 13.6785C6.13397 13.9911 6.55789 14.1666 6.99992 14.1666ZM11.9999 6.66665C12.4419 6.66665 12.8659 6.84224 13.1784 7.1548C13.491 7.46736 13.6666 7.89129 13.6666 8.33331V16.6666C13.6666 17.1087 13.491 17.5326 13.1784 17.8452C12.8659 18.1577 12.4419 18.3333 11.9999 18.3333H1.99992C1.55789 18.3333 1.13397 18.1577 0.821407 17.8452C0.508847 17.5326 0.333252 17.1087 0.333252 16.6666V8.33331C0.333252 7.89129 0.508847 7.46736 0.821407 7.1548C1.13397 6.84224 1.55789 6.66665 1.99992 6.66665H2.83325V4.99998C2.83325 3.89491 3.27224 2.8351 4.05364 2.0537C4.83504 1.2723 5.89485 0.833313 6.99992 0.833313C7.54709 0.833313 8.08891 0.941087 8.59443 1.15048C9.09996 1.35988 9.55929 1.66679 9.9462 2.0537C10.3331 2.44061 10.64 2.89994 10.8494 3.40547C11.0588 3.91099 11.1666 4.45281 11.1666 4.99998V6.66665H11.9999ZM6.99992 2.49998C6.33688 2.49998 5.70099 2.76337 5.23215 3.23221C4.76331 3.70105 4.49992 4.33694 4.49992 4.99998V6.66665H9.49992V4.99998C9.49992 4.33694 9.23653 3.70105 8.76769 3.23221C8.29884 2.76337 7.66296 2.49998 6.99992 2.49998Z" fill="#054D3B"/>
</svg>
