<svg width="15" height="15" viewBox="0 0 15 15" fill="none" xmlns="http://www.w3.org/2000/svg">
<path d="M10.9166 9.66666H10.2583L10.025 9.44166C10.5458 8.83663 10.9264 8.12397 11.1396 7.35467C11.3528 6.58537 11.3934 5.77846 11.2583 4.99166C10.8666 2.67499 8.93331 0.824994 6.59998 0.541661C5.77966 0.437882 4.94647 0.523137 4.16417 0.790902C3.38186 1.05867 2.67118 1.50184 2.08651 2.08652C1.50183 2.6712 1.05865 3.38188 0.790886 4.16418C0.523122 4.94648 0.437867 5.77967 0.541646 6.59999C0.824979 8.93333 2.67498 10.8667 4.99165 11.2583C5.77844 11.3934 6.58536 11.3528 7.35466 11.1396C8.12396 10.9264 8.83662 10.5458 9.44165 10.025L9.66665 10.2583V10.9167L13.2083 14.4583C13.55 14.8 14.1083 14.8 14.45 14.4583C14.7916 14.1167 14.7916 13.5583 14.45 13.2167L10.9166 9.66666ZM5.91665 9.66666C3.84165 9.66666 2.16665 7.99166 2.16665 5.91666C2.16665 3.84166 3.84165 2.16666 5.91665 2.16666C7.99165 2.16666 9.66665 3.84166 9.66665 5.91666C9.66665 7.99166 7.99165 9.66666 5.91665 9.66666Z" fill="#054D3B"/>
</svg>
