<svg width="18" height="17" viewBox="0 0 18 17" fill="none" xmlns="http://www.w3.org/2000/svg">
<path d="M17.3109 15.4063C16.2398 13.5264 14.5672 12.0616 12.5624 11.2477C13.5594 10.5 14.2958 9.45754 14.6674 8.26805C15.0389 7.07856 15.0268 5.80231 14.6328 4.62008C14.2387 3.43785 13.4826 2.40958 12.4717 1.68093C11.4607 0.952278 10.2461 0.560181 8.99994 0.560181C7.75377 0.560181 6.53918 0.952278 5.52823 1.68093C4.51727 2.40958 3.76121 3.43785 3.36714 4.62008C2.97306 5.80231 2.96095 7.07856 3.33252 8.26805C3.70409 9.45754 4.4405 10.5 5.43744 11.2477C3.43269 12.0616 1.76013 13.5264 0.689006 15.4063C0.622635 15.513 0.578399 15.632 0.558927 15.7561C0.539456 15.8803 0.545148 16.0071 0.575663 16.129C0.606178 16.2509 0.660894 16.3655 0.736558 16.4658C0.812223 16.5662 0.907291 16.6503 1.01611 16.7131C1.12493 16.776 1.24528 16.8164 1.37 16.8318C1.49473 16.8472 1.62128 16.8374 1.74215 16.803C1.86301 16.7685 1.9757 16.7101 2.07354 16.6312C2.17138 16.5523 2.25236 16.4546 2.31166 16.3438C3.72729 13.8969 6.22729 12.4375 8.99994 12.4375C11.7726 12.4375 14.2726 13.8977 15.6882 16.3438C15.8168 16.5504 16.0206 16.699 16.2567 16.7581C16.4928 16.8172 16.7426 16.7822 16.9533 16.6604C17.1641 16.5387 17.3192 16.3398 17.3859 16.1057C17.4526 15.8717 17.4257 15.6208 17.3109 15.4063ZM4.93744 6.50002C4.93744 5.69654 5.1757 4.9111 5.6221 4.24302C6.06849 3.57495 6.70297 3.05424 7.44529 2.74676C8.18762 2.43928 9.00445 2.35883 9.7925 2.51558C10.5805 2.67234 11.3044 3.05925 11.8726 3.6274C12.4407 4.19555 12.8276 4.91942 12.9844 5.70747C13.1411 6.49552 13.0607 7.31235 12.7532 8.05468C12.4457 8.797 11.925 9.43148 11.2569 9.87787C10.5889 10.3243 9.80343 10.5625 8.99994 10.5625C7.92288 10.5613 6.89029 10.1329 6.12869 9.37128C5.36709 8.60968 4.93868 7.57709 4.93744 6.50002Z" fill="#054D3B"/>
</svg>
